
<?xml version="1.0" encoding="UTF-8"?>
<!DOCTYPE svg PUBLIC "-//W3C//DTD SVG 1.1//EN" "http://www.w3.org/Graphics/SVG/1.1/DTD/svg11.dtd">
<svg viewBox="0 0 24 24" width="20" height="20" fill="#ffc107" title="draw"><path d="M11.8,8.5c0.8,0,1.4,0.3,1.8,0.8c0.4,0.5,0.6,1.4,0.6,2.4v0.5c0,1.1-0.2,1.9-0.6,2.4c-0.4,0.5-1,0.8-1.8,0.8h-0.9v-7 L11.8,8.5L11.8,8.5z M24,12c0,6.6-5.4,12-12,12C5.4,24,0,18.6,0,12C0,5.4,5.4,0,12,0C18.6,0,24,5.4,24,12z M16.9,12.2v-0.5 c0-0.8-0.1-1.5-0.4-2.2c-0.3-0.7-0.6-1.2-1.1-1.7c-0.5-0.5-1-0.8-1.6-1.1c-0.6-0.3-1.3-0.4-2.1-0.4H8.2v11.1h3.6 c0.7,0,1.4-0.1,2-0.4c0.6-0.3,1.2-0.6,1.6-1.1c0.5-0.5,0.8-1,1.1-1.7C16.8,13.7,16.9,13,16.9,12.2L16.9,12.2z"></path></svg>
